<svg xmlns="http://www.w3.org/2000/svg" width="32" height="32" viewBox="0 0 32 32">
  <g fill="none" fill-rule="evenodd">
    <path fill="#1E79BE" d="M21.5,0 L5,0 C2.23857625,0 0,2.23745928 0,5 L0,27 C0,29.7614237 2.23745928,32 5,32 L27,32 C29.7614237,32 32,29.7625407 32,27 L32,10.5 L32,0 L21.5,0 Z"/>
    <g transform="translate(6.4 8.533)">
      <path stroke="#FFFFFF" stroke-width="1.92" d="M3.84 7.68C5.96077354 7.68 7.68 5.96077354 7.68 3.84 7.68 1.71922646 5.96077354 0 3.84 0 1.71922646 0 0 1.71922646 0 3.84 0 5.96077354 1.71922646 7.68 3.84 7.68zM15.5733333 7.68C17.6941069 7.68 19.4133333 5.96077354 19.4133333 3.84 19.4133333 1.71922646 17.6941069 0 15.5733333 0 13.4525598 0 11.7333333 1.71922646 11.7333333 3.84 11.7333333 5.96077354 13.4525598 7.68 15.5733333 7.68z"/>
      <path stroke="#FFFFFF" stroke-width="2" d="M1.0464,6.4 C1.0464,6.4 -0.580266667,15.9989333 9.6224,16 C19.8474667,16.0010667 18.1333333,6.4 18.1333333,6.4"/>
      <path stroke="#FFFFFF" stroke-width="1.813" d="M7.36106667,11.4154667 C7.36106667,11.4154667 8.0032,12.3669333 9.78133333,12.2752 C11.5594667,12.1834667 12.2858667,11.2010667 12.4277333,10.576" stroke-linecap="round"/>
      <rect width="2.133" height="2.133" x="14.933" y="3.2" fill="#FFFFFF" rx=".853"/>
      <rect width="2.133" height="2.133" x="3.2" y="3.2" fill="#FFFFFF" rx=".853"/>
    </g>
  </g>
</svg>