<svg xmlns="http://www.w3.org/2000/svg" width="32" height="32" viewBox="0 0 32 32">
  <g fill="none" fill-rule="evenodd">
    <path fill="#4D9068" d="M21.5,0 L5,0 C2.23857625,0 0,2.23745928 0,5 L0,27 C0,29.7614237 2.23745928,32 5,32 L27,32 C29.7614237,32 32,29.7625407 32,27 L32,10.5 L32,0 L21.5,0 Z"/>
    <path stroke="#FFFFFF" stroke-width="2" d="M22.992,13.7259684 C24.461384,13.7259684 25.652,12.5563967 25.652,11.1129842 C25.652,9.66957174 24.461384,8.5 22.992,8.5 C21.522616,8.5 20.332,9.66957174 20.332,11.1129842 C20.332,12.5563967 21.522616,13.7259684 22.992,13.7259684 L22.992,13.7259684 Z M17.14,24.1779053 C18.901984,24.1779053 20.332,22.7742102 20.332,21.0423242 C20.332,19.3104383 18.901984,17.9067432 17.14,17.9067432 C15.376952,17.9067432 13.948,19.3104383 13.948,21.0423242 C13.948,22.7742102 15.376952,24.1779053 17.14,24.1779053 L17.14,24.1779053 Z M9.16,17.9067432 C10.629384,17.9067432 11.82,16.7371714 11.82,15.293759 C11.82,13.8503465 10.629384,12.6807747 9.16,12.6807747 C7.690616,12.6807747 6.5,13.8503465 6.5,15.293759 C6.5,16.7371714 7.690616,17.9067432 9.16,17.9067432 L9.16,17.9067432 Z M18.7558606,18.331286 L21.7974718,13.4421629 L18.7558606,18.331286 Z M14.5623271,19.188419 L11.3216235,16.8171995 L14.5623271,19.188419 Z"/>
  </g>
</svg>